HIERARCHY
ROOT Hips
{
	OFFSET 56.294300 -37.405914 94.045692
	CHANNELS 6 Xposition Yposition Zposition Xrotation Yrotation Zrotation
	JOINT spine
	{
		OFFSET 0.000000 -0.448574 7.800591
		CHANNELS 3 Xrotation Yrotation Zrotation
		JOINT spine1
		{
			OFFSET 0.000000 -0.000004 10.136398
			CHANNELS 3 Xrotation Yrotation Zrotation
			JOINT spine2
			{
				OFFSET 0.000000 0.000000 9.712509
				CHANNELS 3 Xrotation Yrotation Zrotation
				JOINT Neck
				{
					OFFSET 0.000000 -1.188873 24.936111
					CHANNELS 3 Xrotation Yrotation Zrotation
					JOINT Head
					{
						OFFSET 0.000000 -0.000004 7.533844
						CHANNELS 3 Xrotation Yrotation Zrotation
						End Site
						{
							OFFSET 0.000000 6.014019 18.236099
						}
					}
				}
				JOINT RightShoulder
				{
					OFFSET -4.089649 0.569454 10.488800
					CHANNELS 3 Xrotation Yrotation Zrotation
					JOINT RightArm
					{
						OFFSET 0.000000 0.000000 13.757004
						CHANNELS 3 Xrotation Yrotation Zrotation
						JOINT RightArmRoll
						{
							OFFSET 0.000000 -0.000004 6.944778
							CHANNELS 3 Xrotation Yrotation Zrotation
							JOINT RightForeArm
							{
								OFFSET 0.000000 0.000000 20.227692
								CHANNELS 3 Xrotation Yrotation Zrotation
								JOINT RightForeArmRoll
								{
									OFFSET 0.000000 -0.000004 7.793121
									CHANNELS 3 Xrotation Yrotation Zrotation
									JOINT RightHand
									{
										OFFSET 0.000000 0.000000 15.639099
										CHANNELS 3 Xrotation Yrotation Zrotation
										End Site
										{
											OFFSET 0.000000 0.000000 0.100006
										}
									}
								}
							}
						}
					}
				}
				JOINT LeftShoulder
				{
					OFFSET 4.089649 0.569454 10.488800
					CHANNELS 3 Xrotation Yrotation Zrotation
					JOINT LeftArm
					{
						OFFSET 0.000000 0.000000 13.757004
						CHANNELS 3 Xrotation Yrotation Zrotation
						JOINT LeftArmRoll
						{
							OFFSET 0.000000 -0.000004 6.944778
							CHANNELS 3 Xrotation Yrotation Zrotation
							JOINT LeftForeArm
							{
								OFFSET 0.000000 0.000000 20.227692
								CHANNELS 3 Xrotation Yrotation Zrotation
								JOINT LeftForeArmRoll
								{
									OFFSET 0.000000 -0.000004 7.793137
									CHANNELS 3 Xrotation Yrotation Zrotation
									JOINT LeftHand
									{
										OFFSET 0.000000 0.000000 15.639099
										CHANNELS 3 Xrotation Yrotation Zrotation
										End Site
										{
											OFFSET 0.000000 0.000000 0.100006
										}
									}
								}
							}
						}
					}
				}
			}
		}
	}
	JOINT RightUpLeg
	{
		OFFSET -6.914150 1.063580 -1.267883
		CHANNELS 3 Xrotation Yrotation Zrotation
		JOINT RightUpLegRoll
		{
			OFFSET 0.000000 -0.000004 18.337799
			CHANNELS 3 Xrotation Yrotation Zrotation
			JOINT RightLeg
			{
				OFFSET 0.000000 0.000004 -22.708496
				CHANNELS 3 Xrotation Yrotation Zrotation
				JOINT RightLegRoll
				{
					OFFSET 0.000000 -0.000004 22.782799
					CHANNELS 3 Xrotation Yrotation Zrotation
					JOINT RightFoot
					{
						OFFSET 0.000000 -0.000004 18.962906
						CHANNELS 3 Xrotation Yrotation Zrotation
						JOINT RightToeBase
						{
							OFFSET 0.000000 0.000000 15.852005
							CHANNELS 3 Xrotation Yrotation Zrotation
							End Site
							{
								OFFSET 0.006718 0.884888 7.677002
							}
						}
					}
				}
			}
		}
	}
	JOINT LeftUpLeg
	{
		OFFSET 6.914150 1.063580 -1.267883
		CHANNELS 3 Xrotation Yrotation Zrotation
		JOINT LeftUpLegRoll
		{
			OFFSET 0.000000 -0.000004 18.337898
			CHANNELS 3 Xrotation Yrotation Zrotation
			JOINT LeftLeg
			{
				OFFSET 0.000000 -0.000004 22.708405
				CHANNELS 3 Xrotation Yrotation Zrotation
				JOINT LeftLegRoll
				{
					OFFSET 0.000000 -0.000004 22.993393
					CHANNELS 3 Xrotation Yrotation Zrotation
					JOINT LeftFoot
					{
						OFFSET 0.000000 0.000000 18.752197
						CHANNELS 3 Xrotation Yrotation Zrotation
						JOINT LeftToeBase
						{
							OFFSET 0.000000 -0.000004 15.852005
							CHANNELS 3 Xrotation Yrotation Zrotation
							End Site
							{
								OFFSET -0.030113 0.884888 7.677002
							}
						}
					}
				}
			}
		}
	}
}
MOTION
Frames: 5
Frame Time: 0.041667
50.887993 -14.413502 68.497284 23.470729 4.044059 14.690557 3.563670 -0.505612 -0.107452 11.129782 -1.017168 -0.185691 12.774960 -1.019323 -0.173498 -49.943709 21.565682 0.544645 0.909230 -17.353050 -10.996893 -14.025209 -35.216230 -15.671510 -50.206883 -160.575357 -93.563456 0.000018 0.000006 0.000007 1.137582 -44.439960 3.509956 -0.000001 -0.000007 -3.068660 -4.999760 -7.999048 -0.000082 -18.086749 51.786641 21.343272 -70.276656 146.194721 112.362042 -0.000002 0.000006 -0.000004 37.643840 23.573052 -7.263038 0.000007 -0.000015 2.999980 -5.000198 7.999511 -0.000081 -85.248240 -177.742081 -3.293600 -179.999991 0.000005 -0.707998 92.890245 3.356712 0.790296 -0.000003 -0.000002 1.960659 89.254132 5.150395 8.439842 25.466765 -7.355603 0.010296 -86.048274 176.051746 -4.964259 -0.000018 -0.000002 -1.176269 -84.487309 1.865008 2.712205 -0.000002 -0.000001 -2.287443 86.144245 -7.012069 0.347573 25.950411 7.347059 -0.065536 
50.884392 -14.483009 68.692482 23.432193 4.066065 14.696378 3.558009 -0.503726 -0.104759 11.118461 -1.013204 -0.180577 12.763636 -1.015302 -0.168436 -50.030610 21.476982 0.511366 0.964112 -17.311495 -10.991086 -14.009678 -35.409907 -15.659191 -50.263451 -160.693724 -92.818221 0.000018 0.000006 0.000007 0.419568 -44.164437 2.874626 -0.000002 -0.000003 -3.081910 -4.999760 -7.999053 -0.000082 -18.020918 51.926052 21.262866 -70.158863 146.170816 111.917403 -0.000003 0.000007 -0.000004 37.246179 23.555174 -7.168471 0.000011 -0.000015 2.999974 -5.000200 7.999514 -0.000081 -84.935984 -177.714829 -3.266533 -179.999991 0.000004 -0.707003 93.222110 3.294926 0.729302 -0.000001 -0.000002 1.950490 89.215856 5.161719 8.374445 25.466765 -7.355604 0.010295 -85.736011 176.023414 -4.905592 -0.000019 -0.000004 -1.169409 -84.156270 1.935603 2.760501 -0.000000 -0.000001 -2.267920 86.108612 -7.017157 0.363314 25.931621 7.347055 -0.063143 
50.883003 -14.555002 68.879883 23.391861 4.088456 14.702018 3.552408 -0.502126 -0.102093 11.107346 -1.009808 -0.175327 12.752524 -1.011845 -0.163224 -50.117111 21.388485 0.479145 1.020254 -17.270029 -10.984086 -13.994124 -35.605701 -15.646941 -50.326733 -160.809892 -92.074379 0.000018 0.000006 0.000004 -0.139865 -43.847018 2.250300 -0.000001 -0.000005 -3.097661 -4.999762 -7.999051 -0.000080 -17.952635 52.068742 21.179628 -70.044526 146.140462 111.466044 -0.000002 0.000007 -0.000005 36.838373 23.534576 -7.070823 0.000010 -0.000014 2.999980 -5.000200 7.999512 -0.000079 -84.621625 -177.686702 -3.237728 -179.999991 0.000005 -0.707002 93.556755 3.230992 0.666646 -0.000001 0.000000 1.940139 89.175203 5.173521 8.306467 25.466765 -7.355602 0.010295 -85.421173 175.993197 -4.848445 -0.000020 -0.000003 -1.162590 -83.823319 2.006780 2.808411 -0.000002 0.000000 -2.248382 86.072090 -7.022554 0.379787 25.912525 7.347056 -0.060668 
50.881798 -14.621902 69.081589 23.348746 4.111773 14.707434 3.547086 -0.500931 -0.099508 11.096634 -1.007223 -0.170014 12.741913 -1.009185 -0.157945 -50.205524 21.301162 0.448724 1.079045 -17.229224 -10.976058 -13.978426 -35.803052 -15.634453 -50.395707 -160.922740 -91.325339 0.000018 0.000006 0.000008 -0.551181 -43.488077 1.622025 -0.000002 -0.000002 -3.116239 -4.999760 -7.999048 -0.000080 -17.882082 52.214494 21.093789 -69.929580 146.103074 111.001475 -0.000002 0.000006 -0.000005 36.422663 23.507450 -6.969324 0.000009 -0.000017 2.999980 -5.000200 7.999512 -0.000080 -84.304663 -177.657960 -3.207987 -179.999991 0.000006 -0.707001 93.894795 3.164525 0.602372 -0.000001 -0.000002 1.929680 89.132022 5.185933 8.235211 25.466763 -7.355603 0.010295 -85.102948 175.960467 -4.791206 -0.000019 -0.000003 -1.155769 -83.487704 2.078547 2.856034 -0.000002 -0.000001 -2.228781 86.034845 -7.028108 0.396906 25.892730 7.347062 -0.058069 
50.879097 -14.694204 69.267784 23.303250 4.135835 14.712769 3.541985 -0.500076 -0.096986 11.086527 -1.005306 -0.164648 12.731700 -1.007217 -0.152600 -50.295133 21.214229 0.419237 1.140131 -17.188803 -10.967024 -13.962664 -36.002330 -15.621874 -50.470286 -161.031504 -90.572584 0.000018 0.000006 0.000003 -0.830816 -43.091500 0.991496 -0.000000 -0.000004 -3.137269 -4.999762 -7.999050 -0.000081 -17.809286 52.362573 21.005414 -69.814314 146.059060 110.526408 -0.000003 0.000004 -0.000004 36.000179 23.474404 -6.864568 0.000007 -0.000015 2.999979 -5.000199 7.999515 -0.000078 -83.984798 -177.628755 -3.175394 -179.999991 0.000005 -0.707002 94.235977 3.095785 0.537490 -0.000001 -0.000002 1.919123 89.086451 5.199042 8.160978 25.466763 -7.355602 0.010295 -84.781656 175.925401 -4.733360 -0.000020 -0.000004 -1.148941 -83.149678 2.150831 2.903357 -0.000001 -0.000000 -2.209121 85.996706 -7.033954 0.414656 25.872321 7.347072 -0.055355 
